<svg width="173" height="38" viewBox="0 0 173 38" fill="none" xmlns="http://www.w3.org/2000/svg">
<g clip-path="url(#clip0_0_308)">
<path fill-rule="evenodd" clip-rule="evenodd" d="M54.691 5.715H41.381V28.191H45.423L45.393 19.244H54.684C59.414 19.244 64.236 18.467 64.236 12.905V12.026C64.243 6.502 59.424 5.715 54.691 5.715ZM60.237 12.849C60.237 15.449 57.923 15.513 55.256 15.513H45.34V9.449H54.83C55.458 9.449 56.116 9.416 56.767 9.479C57.361 9.47804 57.9521 9.56258 58.522 9.73C59.0364 9.8508 59.4902 10.1527 59.8003 10.5805C60.1104 11.0084 60.2562 11.5335 60.211 12.06L60.237 12.849ZM65.137 5.72H88.466V9.449H78.786V28.189H74.78L74.81 9.449H65.129L65.137 5.72ZM117.437 5.72H120.663V28.191H116.674V14.034L109.564 24.941L106.9 24.879L99.552 14.001V28.194H95.52V5.719H98.825L108.2 19.809L117.437 5.72ZM143.617 5.72H146.658V28.191H142.692L142.659 11.991L126.559 28.191H123.459V5.715H127.5V21.881L143.617 5.72ZM170 20.691L172.975 23.517L172.882 23.702C172.512 24.3619 172.035 24.956 171.471 25.46C169.028 27.56 164.709 28.177 161.605 28.177C153.276 28.177 148.546 24.819 148.546 16.939C148.546 9.122 153.276 5.731 161.605 5.731C164.705 5.731 169.028 6.331 171.471 8.448C172.027 8.94763 172.502 9.52937 172.882 10.173L172.975 10.391L170 13.185L169.779 12.778C169.686 12.593 169.624 12.391 169.531 12.246L169.28 11.839C169.202 11.7058 169.095 11.5924 168.966 11.508C167.419 9.808 164.051 9.465 161.612 9.465C155.412 9.465 152.589 11.223 152.589 16.965C152.589 22.707 155.408 24.501 161.612 24.501C164.055 24.501 167.419 24.154 168.966 22.491C169.079 22.3834 169.184 22.2674 169.28 22.144C169.347 21.9987 169.431 21.862 169.531 21.737C169.624 21.578 169.686 21.347 169.779 21.202L170 20.691ZM3.39343e-06 15.565C0.000290609 14.7833 0.26994 14.0255 0.763543 13.4194C1.25715 12.8132 1.94455 12.3956 2.71 12.237C6.769 11.401 7.357 11.216 10.276 7.329C10.6458 6.83412 11.1256 6.43196 11.6775 6.15429C12.2293 5.87661 12.8382 5.73102 13.456 5.729C13.7711 5.73136 14.0849 5.77029 14.391 5.845C18.427 6.837 19.722 5.61 20.886 2.794C21.0888 2.30797 21.4197 1.88609 21.8434 1.57338C22.2671 1.26067 22.7678 1.06885 23.292 1.01839C23.8162 0.967931 24.3443 1.06072 24.8199 1.28687C25.2955 1.51301 25.7008 1.86403 25.9926 2.30246C26.2843 2.7409 26.4516 3.25031 26.4765 3.77636C26.5014 4.3024 26.3831 4.82534 26.1341 5.28939C25.8851 5.75345 25.5148 6.1412 25.0627 6.41129C24.6106 6.68139 24.0936 6.82368 23.567 6.823C23.4374 6.82188 23.308 6.81085 23.18 6.79C20.185 6.403 18.47 6.896 17.28 10.879C17.0566 11.6225 16.6217 12.285 16.0282 12.7855C15.4348 13.2861 14.7085 13.6031 13.938 13.698C9.106 14.298 8.65 14.709 5.92 17.813C5.46441 18.3279 4.86284 18.6918 4.19534 18.8564C3.52784 19.0209 2.82605 18.9784 2.18334 18.7343C1.54062 18.4903 0.987457 18.0563 0.597437 17.4901C0.207416 16.924 -0.000969829 16.2525 3.39343e-06 15.565ZM0.446003 3.924C0.446597 3.34094 0.620074 2.77116 0.944498 2.28669C1.26892 1.80222 1.72972 1.42484 2.26862 1.20226C2.80753 0.979683 3.40033 0.921906 3.97207 1.03624C4.54381 1.15057 5.06881 1.43187 5.48067 1.84458C5.89254 2.25728 6.17277 2.78285 6.28594 3.35482C6.39911 3.92679 6.34012 4.51948 6.11645 5.05793C5.89277 5.59638 5.51445 6.05641 5.02933 6.37984C4.5442 6.70328 3.97406 6.8756 3.391 6.875C3.00387 6.87461 2.6206 6.79797 2.26308 6.64945C1.90556 6.50094 1.5808 6.28346 1.30733 6.00943C1.03386 5.73541 0.817045 5.4102 0.669258 5.05238C0.521471 4.69456 0.445609 4.31114 0.446003 3.924ZM26.96 15.565C26.96 16.4657 26.6026 17.3296 25.9663 17.967C25.33 18.6045 24.4667 18.9634 23.566 18.965C23.4057 18.9645 23.2456 18.9525 23.087 18.929C20.187 18.513 18.675 19.094 17.577 22.661C17.32 23.4929 16.8177 24.2277 16.1358 24.7691C15.454 25.3105 14.6245 25.6332 13.756 25.695C8.402 26.095 8.035 26.663 5.473 29.271C5.15635 29.5947 4.76911 29.8407 4.34157 29.9898C3.91402 30.1389 3.45778 30.1871 3.00852 30.1305C2.55927 30.074 2.12919 29.9143 1.75193 29.6639C1.37467 29.4135 1.06047 29.0792 0.833894 28.6871C0.607322 28.2951 0.474529 27.8559 0.445904 27.4041C0.417279 26.9522 0.493598 26.4998 0.66889 26.0823C0.844182 25.6648 1.11369 25.2935 1.45634 24.9975C1.79899 24.7015 2.20547 24.4888 2.644 24.376C6.194 23.467 6.881 23.447 9.886 18.976C10.3716 18.2488 11.0673 17.687 11.8804 17.3654C12.6936 17.0438 13.5854 16.9777 14.437 17.176C18.073 18.022 19.325 16.998 20.426 14.276C20.7188 13.5435 21.2579 12.9362 21.9505 12.5586C22.6431 12.1811 23.4457 12.0571 24.2199 12.2079C24.9942 12.3588 25.6915 12.775 26.1917 13.3849C26.6919 13.9949 26.9636 14.7602 26.96 15.549V15.565ZM26.5 27.206C26.4955 27.8667 26.2691 28.5067 25.8573 29.0233C25.4455 29.54 24.872 29.9033 24.229 30.055C20.412 30.967 19.744 31.047 16.673 35.343C16.2885 35.8872 15.773 36.3257 15.1743 36.6181C14.5755 36.9105 13.9127 37.0473 13.2471 37.0159C12.5815 36.9845 11.9346 36.7859 11.366 36.4385C10.7974 36.091 10.3256 35.6059 9.99396 35.0279C9.66236 34.45 9.48174 33.7978 9.46876 33.1316C9.45579 32.4653 9.61088 31.8066 9.91971 31.2162C10.2285 30.6257 10.6812 30.1226 11.2358 29.7533C11.7904 29.3839 12.4291 29.1603 13.093 29.103C18.348 28.611 18.745 28.072 21.432 25.223C21.8332 24.7911 22.3556 24.4905 22.9306 24.3606C23.5056 24.2307 24.1065 24.2776 24.6544 24.4951C25.2023 24.7126 25.6717 25.0906 26.001 25.5795C26.3304 26.0685 26.5043 26.6455 26.5 27.235V27.206Z" fill="white"/>
</g>
<defs>
<clipPath id="clip0_0_308">
<rect width="172.97" height="36.042" fill="white" transform="translate(0 0.979004)"/>
</clipPath>
</defs>
</svg>
