<svg xmlns="http://www.w3.org/2000/svg" width="143" height="30" viewBox="0 0 143 30">
  <g id="Академическая-школа-IT_2_30x" data-name="Академическая-школа-IT_2@30x" transform="translate(-597.185 3974)">
    <path id="Контур_1624" data-name="Контур 1624" d="M13926.427-3974s-.1.7-.214,1.558-.213,1.563-.213,1.574v.02h6.606l.212-1.551c.117-.852.215-1.563.217-1.578l0-.027h-3.307C13927.914-3974,13926.427-3974,13926.427-3974Z" transform="translate(-13215.415)" fill="#465ca4"/>
    <path id="Контур_1625" data-name="Контур 1625" d="M14873.836-3514.982l-.436,3.017,3.5,0h3.506l-.006.045c0,.024-.616,4.518-1.362,9.986s-1.357,9.963-1.361,9.99l-.006.049h6.66l1.369-10.035,1.369-10.036h7.037l.434-3.005c.238-1.652.434-3.012.434-3.02s-.5-.015-10.354-.015h-10.354Z" transform="translate(-14154.793 -452.11)" fill="#465ca4"/>
    <path id="Контур_1626" data-name="Контур 1626" d="M11063.606-3514.081c-.069.506-.146,1.049-.167,1.207l-.039.288h2.415l.164-1.192c.091-.655.165-1.2.164-1.207a8.724,8.724,0,0,0-1.205-.015h-1.2Z" transform="translate(-10377.163 -455.085)" fill="#465ca4"/>
    <path id="Контур_1627" data-name="Контур 1627" d="M11415.162-3513.808c-.09.656-.164,1.2-.164,1.207a8.176,8.176,0,0,0,1.206.016h1.2l.148-1.073c.082-.59.157-1.133.167-1.207l.019-.134h-2.416Z" transform="translate(-10725.77 -455.085)" fill="#465ca4"/>
    <path id="Контур_1628" data-name="Контур 1628" d="M12113.6-3513.945c-.087.581-.169,1.124-.181,1.207l-.021.152h2.44l.165-1.192c.09-.655.164-1.2.163-1.207a8.711,8.711,0,0,0-1.2-.015h-1.205Z" transform="translate(-11418.23 -455.085)" fill="#465ca4"/>
    <path id="Контур_1629" data-name="Контур 1629" d="M12816.162-3513.808c-.09.656-.164,1.2-.164,1.207a8.354,8.354,0,0,0,1.219.016h1.217l.165-1.192c.091-.655.165-1.2.163-1.207a8.9,8.9,0,0,0-1.218-.015h-1.217Z" transform="translate(-12114.85 -455.085)" fill="#465ca4"/>
    <path id="Контур_1630" data-name="Контур 1630" d="M13487.771-3509.082l-.832,5.919,1.214,0c.667,0,1.214,0,1.214.009s-.074.55-.164,1.214l-.165,1.209h-2.431l-.447,3.235-.449,3.236,1.214,0c.668,0,1.214,0,1.214.008s-.074.544-.164,1.2l-.164,1.2h-2.432l-.189,1.451c-.105.8-.191,1.46-.189,1.468s.162.015,3.277.015h3.277l1.814-13.028c1-7.165,1.816-13.034,1.814-13.042s-.161-.015-3.29-.015h-3.29Zm5.408.026s-.073.545-.164,1.2l-.164,1.2h-1.209c-.666,0-1.21,0-1.21-.007s.073-.544.164-1.2l.165-1.195h1.208C13492.635-3509.062,13493.18-3509.06,13493.18-3509.056Z" transform="translate(-12778.174 -455.085)" fill="#465ca4"/>
    <path id="Контур_1631" data-name="Контур 1631" d="M8960.979-3178.6a4.391,4.391,0,0,0-1.586.417,3.53,3.53,0,0,0-1.02.731,3.037,3.037,0,0,0-.81,1.542c-.03.153-.423,3.071-.435,3.241a2.412,2.412,0,0,0,.282,1.386,2.775,2.775,0,0,0,2.254,1.264,6.011,6.011,0,0,0,.785,0,3.744,3.744,0,0,0,2.249-1.08,5.427,5.427,0,0,0,.612-.715l.043-.062-.869-.436c-.479-.239-.874-.435-.878-.435a.214.214,0,0,0-.035.053,1.532,1.532,0,0,1-.241.3,1.5,1.5,0,0,1-1.655.27.751.751,0,0,1-.386-.449c-.033-.126-.039-.077.179-1.7.111-.826.207-1.524.214-1.553a1.266,1.266,0,0,1,1.343-.829,1.247,1.247,0,0,1,1.033.507.9.9,0,0,1,.06.109c.014.034.023.047.033.044.037-.01,1.8-.683,1.8-.689a1.931,1.931,0,0,0-.18-.481,2.526,2.526,0,0,0-.526-.726,2.646,2.646,0,0,0-1.58-.7A5.576,5.576,0,0,0,8960.979-3178.6Z" transform="translate(-8288.811 -788.582)" fill="#465ca4"/>
    <path id="Контур_1632" data-name="Контур 1632" d="M12767.594-3168.978c-.076.561-.152,1.11-.168,1.219l-.025.2h2.439l.178-1.205c.1-.662.177-1.211.177-1.22a9.055,9.055,0,0,0-1.229-.015h-1.231Z" transform="translate(-12066.665 -797.123)" fill="#465ca4"/>
    <path id="Контур_1633" data-name="Контур 1633" d="M13470.162-3168.8c-.09.663-.164,1.212-.164,1.22a8.558,8.558,0,0,0,1.219.015h1.217l.075-.6c.042-.327.111-.876.155-1.22l.078-.625h-2.415Z" transform="translate(-12763.284 -797.123)" fill="#465ca4"/>
    <path id="Контур_1634" data-name="Контур 1634" d="M599.232-3162.813c-1.123,2.3-2.044,4.192-2.046,4.2a7.243,7.243,0,0,0,1.138.015h1.142l.371-.844.371-.844h2.244l.153.844.154.844h2.289l-.015-.066c-.008-.036-.418-1.926-.91-4.2l-.895-4.135h-1.953Zm2.885-.585c.055.668.1,1.219.1,1.224a4.891,4.891,0,0,1-.619.011c-.369,0-.618,0-.616-.008l.446-1.224.444-1.216h.145Z" transform="translate(0 -800.092)" fill="#465ca4"/>
    <path id="Контур_1635" data-name="Контур 1635" d="M1581.586-3162.814c-.322,2.3-.587,4.193-.586,4.2a6.477,6.477,0,0,0,1.064.015h1.064l.2-1.457.2-1.456.034-.036c.019-.02.037-.034.04-.032s.4.673.871,1.492l.865,1.489h4.743l.384-.844.384-.844h2.219l.153.844.154.844h1.141c.907,0,1.14,0,1.14-.011s-.407-1.9-.906-4.2l-.907-4.19h-1.928l-2,4.1c-1.6,3.284-2,4.1-2.01,4.087s-.589-.922-1.295-2.036l-1.286-2.025.02-.021,1.941-2.056c1.056-1.119,1.921-2.038,1.921-2.042s-.594-.007-1.321-.007h-1.32l-1.348,1.539c-.741.846-1.349,1.538-1.349,1.537s.094-.685.211-1.52.213-1.526.213-1.537V-3167h-2.128Zm11.154-.584c.055.668.1,1.219.1,1.224a4.893,4.893,0,0,1-.619.011c-.377,0-.618,0-.616-.008s.2-.555.446-1.224l.443-1.216h.145Zm-4.759,4.717.048.075h-.188l.04-.081c.022-.044.042-.078.046-.074S1587.954-3158.722,1587.981-3158.682Z" transform="translate(-975.423 -800.092)" fill="#465ca4"/>
    <path id="Контур_1636" data-name="Контур 1636" d="M3288-3165.522c-.177.813-.368,1.7-.424,1.973-.147.723-.217,1.023-.3,1.318a2.24,2.24,0,0,1-1.041,1.548,1.758,1.758,0,0,1-.7.158h-.052l-.241,1.794c-.132.986-.241,1.8-.24,1.808a6.48,6.48,0,0,0,1.064.015h1.064l.115-.844.115-.845h2.092c1.865,0,2.093,0,2.093.013s-.194,1.622-.2,1.656l0,.02h2.134l.241-1.794c.132-.986.241-1.8.24-1.809s-.031-.014-.546-.014a4.358,4.358,0,0,1-.546-.01c0-.005.206-1.453.456-3.219s.457-3.217.457-3.227V-3167h-5.455Zm3.338.559s-.137,1-.3,2.222l-.305,2.216h-1.012c-.558,0-1.013,0-1.013,0s.024-.038.054-.079a3.963,3.963,0,0,0,.577-1.315c.07-.26.129-.536.381-1.781l.255-1.265h.685C3291.029-3164.97,3291.337-3164.967,3291.337-3164.964Z" transform="translate(-2664.948 -800.09)" fill="#465ca4"/>
    <path id="Контур_1637" data-name="Контур 1637" d="M4404.024-3163.052c-.3,2.171-.57,4.061-.59,4.2l-.035.254h5.844l.141-1,.141-1-1.84,0c-1.013,0-1.841,0-1.841-.009s.039-.283.087-.623l.088-.616h3.378l.139-.937c.076-.515.138-.943.138-.951s-.087-.015-1.7-.015c-.933,0-1.7,0-1.7-.007s.039-.283.087-.623l.088-.616h3.685l.1-.689c.054-.379.117-.829.142-1l.044-.313h-5.844Z" transform="translate(-3773.832 -800.092)" fill="#465ca4"/>
    <path id="Контур_1638" data-name="Контур 1638" d="M5220.585-3162.814c-.323,2.3-.587,4.193-.586,4.2a6.491,6.491,0,0,0,1.065.015h1.064l.168-1.235.168-1.234.049-.826.049-.825h.021a7.937,7.937,0,0,1,.38,1.433l.358,1.433h1.467l.755-1.433c.663-1.259.757-1.433.773-1.433s.02,0,.02.006-.078.377-.175.83l-.176.823-.165,1.211c-.092.667-.167,1.22-.169,1.23l0,.02h2.135l.587-4.186c.322-2.3.586-4.193.586-4.2a6.822,6.822,0,0,0-1.064-.015h-1.064l-1.172,2.039c-.645,1.122-1.175,2.036-1.178,2.032s-.268-.921-.589-2.039L5223.3-3167h-2.133Z" transform="translate(-4583.485 -800.092)" fill="#465ca4"/>
    <path id="Контур_1639" data-name="Контур 1639" d="M6288.024-3163.053c-.3,2.172-.57,4.062-.59,4.2l-.035.254h2.006l1.237-1.644,1.237-1.644.516-.825a6.872,6.872,0,0,1,.536-.826c.01,0,.019,0,.019,0s-.1.36-.217.8l-.216.792-.227,1.659c-.125.913-.229,1.666-.23,1.673a6.367,6.367,0,0,0,1.064.015h1.067l.554-3.947c.3-2.171.569-4.061.589-4.2l.036-.253h-1.955l-1.317,1.792-1.318,1.791-.46.742a5.17,5.17,0,0,1-.481.742c-.015,0-.019,0-.017-.015s.084-.293.18-.633l.176-.618.265-1.881c.145-1.035.265-1.889.265-1.9V-3167h-2.128Z" transform="translate(-5641.804 -800.092)" fill="#465ca4"/>
    <path id="Контур_1640" data-name="Контур 1640" d="M7283.442-3165.449c-.123.852-.232,1.6-.241,1.665a4.692,4.692,0,0,0-.012.759,2.477,2.477,0,0,0,.222.814,2.206,2.206,0,0,0,1.419,1.165,3.078,3.078,0,0,0,1.3.084,2.921,2.921,0,0,0,1.063-.387.588.588,0,0,1,.082-.049s-.09.625-.2,1.384-.2,1.387-.2,1.4v.019h2.153l.554-3.947c.3-2.171.57-4.061.59-4.2l.035-.253h-2.133l-.269,1.818-.269,1.818-.052.038a2.143,2.143,0,0,1-1.023.354,2.447,2.447,0,0,1-.5,0,.751.751,0,0,1-.428-.2.53.53,0,0,1-.155-.269.679.679,0,0,1-.018-.2c0-.131.009-.2.22-1.722.12-.873.218-1.6.218-1.606v-.02h-2.128Z" transform="translate(-6629.11 -800.092)" fill="#465ca4"/>
    <path id="Контур_1641" data-name="Контур 1641" d="M8124.024-3163.053c-.3,2.172-.57,4.062-.59,4.2l-.035.254h5.845l.129-1,.128-1-1.842,0c-1.012,0-1.84,0-1.84-.009s.039-.283.087-.623l.088-.616h3.4l.128-.95.128-.948-1.7,0c-.936,0-1.7,0-1.7-.009s.039-.283.087-.623l.088-.616h3.686l.144-.937c.079-.514.148-.966.154-1l.011-.066h-5.845Z" transform="translate(-7462.182 -800.092)" fill="#465ca4"/>
    <path id="Контур_1642" data-name="Контур 1642" d="M9747.016-3162.993c-.309,2.2-.573,4.094-.589,4.2l-.026.194h2.133l.2-1.457.2-1.456.034-.036c.019-.02.036-.034.04-.032s.395.673.871,1.492l.864,1.489h4.743l.384-.844.384-.844h2.218l.153.844.152.844h4.412l1.33-1.407,1.33-1.407h.173c.13,0,.173,0,.173.01s-.09.63-.2,1.388-.2,1.387-.2,1.4v.019h2.128l.587-4.186c.322-2.3.587-4.193.586-4.2s-.088-.015-1.746-.015c-1.045,0-1.8,0-1.888.009a3.53,3.53,0,0,0-2.409.99,3.061,3.061,0,0,0-.777,1.437,3.67,3.67,0,0,0-.075,1.412,1.74,1.74,0,0,0,.827,1.263,3.317,3.317,0,0,0,.414.209.281.281,0,0,1,.082.04c-.006.019-2.545,2.613-2.549,2.6s-.393-1.8-.866-3.987l-.86-3.977h-1.928l-1.89,3.849-2.013,4.1-.125.252-1.279-2.035-1.281-2.039s.872-.93,1.939-2.061,1.94-2.058,1.94-2.062-.595-.007-1.319-.007h-1.321l-1.348,1.539c-.741.846-1.349,1.538-1.35,1.537s.095-.685.211-1.52.214-1.526.214-1.536v-.02h-2.129Zm19.674-1.97s-.057.422-.125.931l-.127.924-.716,0a4.363,4.363,0,0,1-.8-.021.7.7,0,0,1-.588-.529,1.3,1.3,0,0,1,0-.432,1.006,1.006,0,0,1,.3-.588,1.063,1.063,0,0,1,.676-.281C9765.355-3164.971,9766.689-3164.97,9766.689-3164.964Zm-8.545,1.565c.057.668.1,1.219.1,1.224a4.878,4.878,0,0,1-.619.011c-.369,0-.617,0-.615-.008s.2-.555.445-1.224l.444-1.216h.146Zm2.875,4.6c.023.1.039.19.038.192s-.106,0-.23,0l-.228,0,.185-.19c.1-.1.187-.189.189-.189A1.429,1.429,0,0,1,9761.02-3158.8Zm-7.658.12.047.075h-.187l.04-.081a.242.242,0,0,1,.046-.074S9753.334-3158.722,9753.361-3158.682Z" transform="translate(-9071.401 -800.092)" fill="#465ca4"/>
    <path id="Контур_1643" data-name="Контур 1643" d="M12720.162-2820.808c-.09.656-.164,1.2-.163,1.207a8.324,8.324,0,0,0,1.218.016h1.217l.165-1.192c.091-.655.165-1.2.164-1.207a8.9,8.9,0,0,0-1.218-.015h-1.218Z" transform="translate(-12019.667 -1142.146)" fill="#465ca4"/>
    <path id="Контур_1644" data-name="Контур 1644" d="M13071.163-2820.808c-.091.656-.165,1.2-.163,1.207a8.146,8.146,0,0,0,1.205.016h1.2l.179-1.192c.1-.655.177-1.2.177-1.207a8.928,8.928,0,0,0-1.219-.015h-1.217Z" transform="translate(-12367.681 -1142.146)" fill="#465ca4"/>
    <path id="Контур_1645" data-name="Контур 1645" d="M12321.162-2475.8c-.091.663-.165,1.212-.164,1.22a8.345,8.345,0,0,0,1.205.015h1.205l.178-1.205c.1-.662.176-1.211.176-1.22a8.914,8.914,0,0,0-1.218-.015h-1.218Z" transform="translate(-11624.061 -1484.195)" fill="#465ca4"/>
    <path id="Контур_1646" data-name="Контур 1646" d="M13022.512-2475.992c-.082.555-.164,1.1-.181,1.22l-.032.211h2.416l.165-1.205c.091-.662.165-1.211.164-1.22a8.536,8.536,0,0,0-1.192-.015h-1.192Z" transform="translate(-12319.394 -1484.195)" fill="#465ca4"/>
    <path id="Контур_1647" data-name="Контур 1647" d="M13371.177-2475.8c-.1.663-.177,1.212-.177,1.22a8.558,8.558,0,0,0,1.219.015h1.217l.164-1.205c.092-.662.165-1.211.164-1.22a8.705,8.705,0,0,0-1.205-.015h-1.205Z" transform="translate(-12665.129 -1484.195)" fill="#465ca4"/>
    <path id="Контур_1648" data-name="Контур 1648" d="M9818.594-2130.979c-.077.562-.152,1.112-.168,1.22l-.025.2h2.414l.165-1.205c.091-.662.165-1.211.164-1.22a8.737,8.737,0,0,0-1.206-.015h-1.2Z" transform="translate(-9142.757 -1826.244)" fill="#465ca4"/>
    <path id="Контур_1649" data-name="Контур 1649" d="M10517.594-2130.979c-.076.562-.151,1.112-.167,1.22l-.026.2h2.44l.177-1.205c.1-.662.178-1.211.178-1.22a9.088,9.088,0,0,0-1.23-.015h-1.231Z" transform="translate(-9835.81 -1826.244)" fill="#465ca4"/>
    <path id="Контур_1650" data-name="Контур 1650" d="M11220.163-2130.8c-.091.663-.165,1.212-.163,1.22a8.515,8.515,0,0,0,1.217.015h1.218l.165-1.205c.09-.662.164-1.211.163-1.22a8.9,8.9,0,0,0-1.218-.015h-1.217Z" transform="translate(-10532.431 -1826.244)" fill="#465ca4"/>
    <path id="Контур_1651" data-name="Контур 1651" d="M12623.594-2130.979c-.077.562-.152,1.112-.168,1.22l-.025.2h2.414l.165-1.205c.091-.662.165-1.211.163-1.22a8.705,8.705,0,0,0-1.205-.015h-1.2Z" transform="translate(-11923.891 -1826.244)" fill="#465ca4"/>
    <path id="Контур_1652" data-name="Контур 1652" d="M12975.162-2130.8c-.09.663-.164,1.212-.164,1.22a8.363,8.363,0,0,0,1.205.015h1.205l.14-1.022c.077-.561.152-1.111.167-1.22l.026-.2h-2.415Z" transform="translate(-12272.496 -1826.244)" fill="#465ca4"/>
    <path id="Контур_1653" data-name="Контур 1653" d="M13322.512-2130.992c-.082.555-.163,1.1-.181,1.22l-.031.211h2.441l.164-1.205c.091-.662.164-1.211.164-1.22a8.737,8.737,0,0,0-1.206-.015h-1.2Z" transform="translate(-12616.843 -1826.244)" fill="#465ca4"/>
    <path id="Контур_1654" data-name="Контур 1654" d="M9504.314-1804.973a4.288,4.288,0,0,0-2.507.964,3.538,3.538,0,0,0-.514.562,3.094,3.094,0,0,0-.514,1.228c-.026.15-.458,2.979-.469,3.071a2.493,2.493,0,0,0,.185,1.274,2.306,2.306,0,0,0,.809.943,3.536,3.536,0,0,0,1.654.56,6.518,6.518,0,0,0,.9,0,4.824,4.824,0,0,0,1.292-.3,5.424,5.424,0,0,0,.61-.3,3.2,3.2,0,0,0,1.337-1.544,3.381,3.381,0,0,0,.177-.62c.028-.163.438-3.031.447-3.125a3.5,3.5,0,0,0,0-.5,2.42,2.42,0,0,0-1.967-2.08A4.607,4.607,0,0,0,9504.314-1804.973Zm.378,1.964a1.41,1.41,0,0,1,.557.194.921.921,0,0,1,.215.207.618.618,0,0,1,.113.376c0,.09-.026.278-.211,1.535-.138.932-.218,1.459-.232,1.51a1.084,1.084,0,0,1-.618.669,2.009,2.009,0,0,1-1.591.043.837.837,0,0,1-.427-.415.761.761,0,0,1-.047-.252c0-.047.069-.551.209-1.517.115-.8.213-1.465.217-1.486.107-.477.625-.815,1.35-.88A3.884,3.884,0,0,1,9504.692-1803.009Z" transform="translate(-8827.365 -2150.439)" fill="#465ca4"/>
    <path id="Контур_1655" data-name="Контур 1655" d="M7224.033-1786.125c-.3,2.131-.565,4.015-.589,4.187l-.043.314h10.373l.553-3.935c.3-2.163.57-4.048.59-4.188l.035-.253h-2.134l-.447,3.186-.448,3.186h-.991c-.8,0-.992,0-.992-.011s.2-1.43.444-3.166.444-3.165.444-3.175v-.02H7228.7l-.448,3.186-.448,3.186h-.979c-.813,0-.979,0-.979-.011s.857-6.3.864-6.342l0-.019h-2.134Z" transform="translate(-6569.845 -2165.294)" fill="#465ca4"/>
    <path id="Контур_1656" data-name="Контур 1656" d="M8595.6-1785.826c-.329,2.295-.6,4.18-.6,4.187a6.425,6.425,0,0,0,1.063.016h1.064l.217-1.444.216-1.443.036-.05c.026-.036.038-.046.045-.038s.4.678.869,1.493l.86,1.483h1.333c.781,0,1.333,0,1.333-.008s-.6-.96-1.339-2.126l-1.341-2.117.033-.035,1.908-2.022,1.914-2.028.039-.04H8600.6l-1.348,1.539c-.741.846-1.349,1.538-1.35,1.537s.094-.685.211-1.52.213-1.526.213-1.536v-.02H8596.2Z" transform="translate(-7929.772 -2165.294)" fill="#465ca4"/>
    <path id="Контур_1657" data-name="Контур 1657" d="M10358.7-1788.552c-.168.8-.353,1.686-.409,1.977-.158.785-.234,1.112-.34,1.467-.283.943-.659,1.409-1.209,1.5a1.128,1.128,0,0,1-.23.011l-.143,0-.14.983c-.078.541-.138.985-.136.988a5.993,5.993,0,0,0,1.024.011,2.951,2.951,0,0,0,1.337-.46,2.122,2.122,0,0,0,.414-.343,3.122,3.122,0,0,0,.627-.905,6.588,6.588,0,0,0,.477-1.377c.1-.379.113-.463.52-2.471l.16-.8h.748c.563,0,.748,0,.748.01s-.889,6.149-.911,6.291l-.007.045h2.16l.586-4.174c.322-2.294.588-4.18.586-4.188s-.138-.014-2.779-.014H10359Z" transform="translate(-9675.882 -2165.294)" fill="#465ca4"/>
    <path id="Контур_1658" data-name="Контур 1658" d="M11279.254-1785.825c-1.131,2.3-2.057,4.181-2.058,4.188a10.461,10.461,0,0,0,1.139.013h1.142l.383-.832.384-.832h2.218l.154.832.153.832h1.141c.907,0,1.142,0,1.142-.011s-.408-1.89-.906-4.188l-.906-4.177h-1.928Zm2.873-.6c.056.668.1,1.219.1,1.224a4.809,4.809,0,0,1-.619.011c-.369,0-.617,0-.615-.008s.2-.555.445-1.224l.444-1.216h.146Z" transform="translate(-10589.149 -2165.294)" fill="#465ca4"/>
    <path id="Контур_1659" data-name="Контур 1659" d="M12225.162-1785.8c-.09.663-.164,1.212-.164,1.22a8.309,8.309,0,0,0,1.206.015h1.2l.14-1.022c.077-.561.152-1.111.167-1.22l.027-.2h-2.415Z" transform="translate(-11528.877 -2168.293)" fill="#465ca4"/>
    <path id="Контур_1660" data-name="Контур 1660" d="M12576.163-1785.8c-.091.663-.165,1.212-.164,1.22a8.3,8.3,0,0,0,1.205.015h1.2l.141-1.022c.076-.561.152-1.111.166-1.22l.027-.2h-2.415Z" transform="translate(-11876.893 -2168.293)" fill="#465ca4"/>
    <path id="Контур_1661" data-name="Контур 1661" d="M13275.162-1785.8c-.09.663-.164,1.212-.164,1.22a8.491,8.491,0,0,0,1.219.015h1.217l.165-1.205c.091-.662.165-1.211.164-1.22a8.972,8.972,0,0,0-1.218-.015h-1.218Z" transform="translate(-12569.943 -2168.293)" fill="#465ca4"/>
    <path id="Контур_1662" data-name="Контур 1662" d="M12876.162-1437.808c-.09.656-.164,1.2-.164,1.207a8.455,8.455,0,0,0,1.219.015h1.217l.165-1.193c.091-.655.165-1.2.164-1.207a8.992,8.992,0,0,0-1.218-.015h-1.218Z" transform="translate(-12174.338 -2513.316)" fill="#465ca4"/>
    <path id="Контур_1663" data-name="Контур 1663" d="M13226.586-1437.928c-.082.59-.158,1.134-.168,1.207l-.018.135h2.466l.113-.89c.063-.489.132-1.032.155-1.207l.039-.317h-2.439Z" transform="translate(-12521.76 -2513.316)" fill="#465ca4"/>
    <path id="Контур_1664" data-name="Контур 1664" d="M12477.162-1089.808c-.09.656-.164,1.2-.164,1.207a8.655,8.655,0,0,0,1.231.015h1.229l.113-.89c.063-.489.133-1.032.155-1.207l.04-.317h-2.44Z" transform="translate(-11778.733 -2858.331)" fill="#465ca4"/>
    <path id="Контур_1665" data-name="Контур 1665" d="M12827.585-1089.928c-.081.59-.157,1.134-.167,1.207l-.018.135h2.414l.19-1.193c.1-.655.19-1.2.19-1.207a9.213,9.213,0,0,0-1.232-.015h-1.229Z" transform="translate(-12126.154 -2858.331)" fill="#465ca4"/>
    <path id="Контур_1666" data-name="Контур 1666" d="M13178.607-1090.086c-.07.5-.145,1.047-.168,1.207l-.039.293h2.414l.178-1.193c.1-.655.176-1.2.176-1.207a8.959,8.959,0,0,0-1.217-.015h-1.218Z" transform="translate(-12474.168 -2858.331)" fill="#465ca4"/>
    <path id="Контур_1667" data-name="Контур 1667" d="M12428.6-745.06c-.071.518-.146,1.055-.166,1.194l-.035.254h2.414l.178-1.18c.1-.648.177-1.186.177-1.194a8.933,8.933,0,0,0-1.218-.015h-1.217Z" transform="translate(-11730.549 -3200.389)" fill="#465ca4"/>
    <path id="Контур_1668" data-name="Контур 1668" d="M12780.163-744.821c-.091.649-.165,1.187-.164,1.194a8.441,8.441,0,0,0,1.218.015h1.217l.166-1.18c.09-.648.164-1.186.163-1.194a8.952,8.952,0,0,0-1.218-.015h-1.218Z" transform="translate(-12079.156 -3200.389)" fill="#465ca4"/>
  </g>
</svg>
